<svg width="120" height="32" viewBox="0 0 120 32" fill="none" xmlns="http://www.w3.org/2000/svg">
<path d="M6.51982 24.4255L0.784332 7.26809H3.30893L8.57871 23.102H7.30416L12.77 7.26809H15.025L20.3683 23.102H19.1428L24.4861 7.26809H26.8146L21.0791 24.4255H18.5055L13.5054 9.74367H14.1671L9.14246 24.4255H6.51982ZM34.0524 24.5726C32.7451 24.5726 31.585 24.2866 30.5719 23.7147C29.5588 23.1428 28.7581 22.3585 28.1698 21.3617C27.5816 20.3486 27.2874 19.2048 27.2874 17.9302C27.2874 16.6393 27.5816 15.4955 28.1698 14.4987C28.7581 13.502 29.5588 12.7258 30.5719 12.1702C31.585 11.5983 32.7451 11.3123 34.0524 11.3123C35.3433 11.3123 36.4953 11.5983 37.5084 12.1702C38.5378 12.7258 39.3385 13.502 39.9104 14.4987C40.4987 15.4792 40.7928 16.623 40.7928 17.9302C40.7928 19.2211 40.4987 20.3649 39.9104 21.3617C39.3385 22.3585 38.5378 23.1428 37.5084 23.7147C36.4953 24.2866 35.3433 24.5726 34.0524 24.5726ZM34.0524 22.5137C34.8857 22.5137 35.6292 22.3258 36.2828 21.95C36.9528 21.5741 37.4757 21.0431 37.8515 20.3568C38.2273 19.6541 38.4153 18.8453 38.4153 17.9302C38.4153 16.9988 38.2273 16.1981 37.8515 15.5282C37.4757 14.8419 36.9528 14.3108 36.2828 13.935C35.6292 13.5592 34.8857 13.3712 34.0524 13.3712C33.219 13.3712 32.4755 13.5592 31.8219 13.935C31.1683 14.3108 30.6454 14.8419 30.2532 15.5282C29.861 16.1981 29.665 16.9988 29.665 17.9302C29.665 18.8453 29.861 19.6541 30.2532 20.3568C30.6454 21.0431 31.1683 21.5741 31.8219 21.95C32.4755 22.3258 33.219 22.5137 34.0524 22.5137ZM44.0469 24.4255V11.4349H46.3019V14.9644L46.0813 14.0821C46.4408 13.1833 47.0454 12.497 47.8951 12.0232C48.7448 11.5493 49.7906 11.3123 51.0325 11.3123V13.5918C50.9344 13.5755 50.8364 13.5673 50.7383 13.5673C50.6566 13.5673 50.5749 13.5673 50.4932 13.5673C49.235 13.5673 48.2383 13.9432 47.5029 14.6948C46.7676 15.4465 46.4 16.5331 46.4 17.9547V24.4255H44.0469ZM55.8444 21.2882L55.8934 18.2734L63.3692 11.4349H66.2124L60.4769 17.0723L59.2024 18.1508L55.8444 21.2882ZM53.9326 24.4255V6.23865H56.2856V24.4255H53.9326ZM63.8594 24.4255L58.7612 18.1018L60.2808 16.2145L66.7517 24.4255H63.8594Z" fill="#F96900"/>
<mask id="mask0_19_324" style="mask-type:luminance" maskUnits="userSpaceOnUse" x="66" y="3" width="27" height="26">
<path d="M92.4255 3.48938H66.8936V28.4781H92.4255V3.48938Z" fill="white"/>
</mask>
<g mask="url(#mask0_19_324)">
<path d="M79.6596 27.2659C86.0262 27.2659 91.1872 22.2147 91.1872 15.9837C91.1872 9.75263 86.0262 4.70142 79.6596 4.70142C73.2929 4.70142 68.1319 9.75263 68.1319 15.9837C68.1319 22.2147 73.2929 27.2659 79.6596 27.2659Z" fill="#0C0F0A"/>
<path d="M75.1241 9.74701C71.038 13.9544 70.8082 18.2277 75.1241 22.6439" stroke="#F96900" stroke-width="2" stroke-linecap="round"/>
<path d="M84.4249 9.74701C88.5105 13.9544 88.7403 18.2277 84.4249 22.6439" stroke="#F96900" stroke-width="2" stroke-linecap="round"/>
<path d="M79.6596 18.1481C80.881 18.1481 81.8712 17.1791 81.8712 15.9837C81.8712 14.7884 80.881 13.8193 79.6596 13.8193C78.4382 13.8193 77.448 14.7884 77.448 15.9837C77.448 17.1791 78.4382 18.1481 79.6596 18.1481Z" fill="#F96900"/>
<path d="M77.4557 25.9574V23.8128H77.6824V25.7614H78.8834V25.9574H77.4557ZM80.0441 25.9728C79.9032 25.9728 79.7765 25.9411 79.6642 25.8778C79.5519 25.8124 79.463 25.7185 79.3976 25.5959C79.3323 25.4734 79.2996 25.3253 79.2996 25.1517C79.2996 24.976 79.3323 24.8279 79.3976 24.7074C79.465 24.5848 79.5549 24.4919 79.6673 24.4286C79.7796 24.3653 79.9052 24.3336 80.0441 24.3336C80.1973 24.3336 80.3342 24.3683 80.4547 24.4378C80.5772 24.5052 80.6732 24.6002 80.7427 24.7227C80.8121 24.8453 80.8468 24.9883 80.8468 25.1517C80.8468 25.313 80.8121 25.456 80.7427 25.5806C80.6732 25.7031 80.5772 25.7991 80.4547 25.8686C80.3342 25.938 80.1973 25.9728 80.0441 25.9728ZM79.2138 25.9574V23.6841H79.4313V24.8238L79.4007 25.1486L79.4222 25.4734V25.9574H79.2138ZM80.0288 25.7797C80.1432 25.7797 80.2453 25.7542 80.3352 25.7031C80.425 25.65 80.4965 25.5765 80.5496 25.4825C80.6027 25.3865 80.6293 25.2763 80.6293 25.1517C80.6293 25.025 80.6027 24.9147 80.5496 24.8208C80.4965 24.7268 80.425 24.6543 80.3352 24.6032C80.2453 24.5501 80.1432 24.5236 80.0288 24.5236C79.9144 24.5236 79.8113 24.5501 79.7193 24.6032C79.6295 24.6543 79.558 24.7268 79.5049 24.8208C79.4538 24.9147 79.4283 25.025 79.4283 25.1517C79.4283 25.2763 79.4538 25.3865 79.5049 25.4825C79.558 25.5765 79.6295 25.65 79.7193 25.7031C79.8113 25.7542 79.9144 25.7797 80.0288 25.7797ZM81.7226 25.9728C81.5898 25.9728 81.4642 25.9544 81.3457 25.9176C81.2273 25.8788 81.1343 25.8308 81.0669 25.7736L81.165 25.602C81.2303 25.6511 81.3141 25.694 81.4162 25.7307C81.5183 25.7654 81.6256 25.7828 81.7379 25.7828C81.8911 25.7828 82.0014 25.7593 82.0688 25.7123C82.1362 25.6633 82.1699 25.599 82.1699 25.5193C82.1699 25.4601 82.1505 25.4141 82.1117 25.3814C82.0749 25.3467 82.0259 25.3212 81.9646 25.3048C81.9033 25.2865 81.8349 25.2711 81.7593 25.2589C81.6838 25.2466 81.6082 25.2323 81.5326 25.216C81.4591 25.1997 81.3917 25.1762 81.3304 25.1455C81.2691 25.1128 81.2191 25.0689 81.1803 25.0138C81.1435 24.9586 81.1251 24.8851 81.1251 24.7932C81.1251 24.7054 81.1496 24.6267 81.1987 24.5573C81.2477 24.4878 81.3192 24.4337 81.4131 24.3949C81.5091 24.354 81.6256 24.3336 81.7624 24.3336C81.8666 24.3336 81.9707 24.3479 82.0749 24.3765C82.1791 24.4031 82.2649 24.4388 82.3323 24.4837L82.2373 24.6584C82.1658 24.6094 82.0892 24.5746 82.0075 24.5542C81.9258 24.5317 81.8441 24.5205 81.7624 24.5205C81.6174 24.5205 81.5102 24.546 81.4407 24.5971C81.3733 24.6461 81.3396 24.7094 81.3396 24.7871C81.3396 24.8483 81.358 24.8963 81.3947 24.9311C81.4336 24.9658 81.4836 24.9934 81.5449 25.0138C81.6082 25.0322 81.6766 25.0475 81.7502 25.0597C81.8257 25.072 81.9003 25.0873 81.9738 25.1057C82.0494 25.122 82.1178 25.1455 82.1791 25.1762C82.2424 25.2048 82.2924 25.2466 82.3292 25.3018C82.368 25.3549 82.3874 25.4254 82.3874 25.5132C82.3874 25.6071 82.3609 25.6888 82.3078 25.7583C82.2567 25.8257 82.1811 25.8788 82.081 25.9176C81.983 25.9544 81.8635 25.9728 81.7226 25.9728Z" fill="white"/>
<path d="M78.6608 8.59574V6.54298L78.7588 6.64715H78.1552V6.45106H78.8814V8.59574H78.6608ZM80.2489 8.61412C80.0834 8.61412 79.9363 8.57123 79.8077 8.48544C79.679 8.39761 79.5779 8.27302 79.5043 8.11166C79.4308 7.94825 79.394 7.75217 79.394 7.5234C79.394 7.29464 79.4308 7.09957 79.5043 6.93821C79.5779 6.77481 79.679 6.65021 79.8077 6.56442C79.9363 6.47659 80.0834 6.43268 80.2489 6.43268C80.4143 6.43268 80.5614 6.47659 80.6901 6.56442C80.8187 6.65021 80.9198 6.77481 80.9934 6.93821C81.0689 7.09957 81.1067 7.29464 81.1067 7.5234C81.1067 7.75217 81.0689 7.94825 80.9934 8.11166C80.9198 8.27302 80.8187 8.39761 80.6901 8.48544C80.5614 8.57123 80.4143 8.61412 80.2489 8.61412ZM80.2489 8.41191C80.3755 8.41191 80.4858 8.37821 80.5798 8.31081C80.6737 8.24136 80.7472 8.14127 80.8003 8.01055C80.8535 7.87778 80.88 7.7154 80.88 7.5234C80.88 7.3314 80.8535 7.17004 80.8003 7.03932C80.7472 6.90655 80.6737 6.80647 80.5798 6.73906C80.4858 6.66961 80.3755 6.63489 80.2489 6.63489C80.1263 6.63489 80.017 6.66961 79.921 6.73906C79.825 6.80647 79.7505 6.90655 79.6974 7.03932C79.6443 7.17004 79.6177 7.3314 79.6177 7.5234C79.6177 7.7154 79.6443 7.87778 79.6974 8.01055C79.7505 8.14127 79.825 8.24136 79.921 8.31081C80.017 8.37821 80.1263 8.41191 80.2489 8.41191Z" fill="white"/>
</g>
<path d="M99.7542 25.6429C98.6594 25.6429 97.679 25.4305 96.8129 25.0056C95.9632 24.5808 95.3014 23.9353 94.8276 23.0693C94.3537 22.1869 94.1168 21.0676 94.1168 19.7113V12.2601H97.9404V19.1476C97.9404 20.2424 98.1692 21.0512 98.6267 21.5741C99.1006 22.0807 99.7624 22.334 100.612 22.334C101.2 22.334 101.723 22.2114 102.181 21.9663C102.638 21.7049 102.998 21.3127 103.259 20.7898C103.521 20.2506 103.651 19.5806 103.651 18.7799V12.2601H107.475V25.4468H103.847V21.8192L104.509 22.8732C104.068 23.7883 103.414 24.4827 102.548 24.9566C101.699 25.4141 100.767 25.6429 99.7542 25.6429ZM116.41 25.6429C114.857 25.6429 113.648 25.2507 112.782 24.4664C111.916 23.6657 111.483 22.481 111.483 20.9123V9.34332H115.307V20.8633C115.307 21.4189 115.454 21.8519 115.748 22.1624C116.042 22.4565 116.442 22.6036 116.949 22.6036C117.554 22.6036 118.068 22.4402 118.493 22.1134L119.523 24.8095C119.13 25.0873 118.657 25.2997 118.101 25.4468C117.562 25.5775 116.998 25.6429 116.41 25.6429ZM109.449 15.4955V12.5542H118.591V15.4955H109.449Z" fill="#0C0F0A"/>
</svg>
