<svg width="600" height="373" viewBox="0 0 600 373" fill="none" xmlns="http://www.w3.org/2000/svg">
<g clip-path="url(#clip0_145_668)">
<path d="M491.739 356.257L485.501 354.795L489.274 326.044L498.479 328.202L491.739 356.257Z" fill="#FFB6B6"/>
<path d="M467.111 363.672C466.839 364.719 467.362 365.761 468.279 365.999L480.585 369.193C480.585 369.193 483.06 364.639 488.541 363.826L487.075 370.877L493.423 372.524L495.56 361.129C495.56 361.129 498.812 355.579 496.08 351.602C493.348 347.625 496.094 348.793 496.094 348.793L496.505 341.503L486.619 340.141L483.725 351.001L476.268 360.59L468.564 362.191C467.879 362.334 467.307 362.916 467.111 363.672Z" fill="#2F2E41"/>
<path d="M551.539 349.473L545.849 352.42L530.013 328.129L538.409 323.78L551.539 349.473Z" fill="#FFB6B6"/>
<path d="M537.656 371.125C538.131 372.097 539.206 372.548 540.057 372.133L551.481 366.554C551.481 366.554 550.399 361.485 554.033 357.302L557.506 363.612L563.399 360.733L557.609 350.688C557.609 350.688 556.47 344.358 551.808 343.114C547.146 341.87 549.991 340.971 549.991 340.971L545.561 335.167L537.167 340.563L542.033 350.694L542.606 362.828L537.796 369.055C537.368 369.609 537.313 370.423 537.656 371.125Z" fill="#2F2E41"/>
<path d="M217.886 242.689H383.23C385.312 242.689 386.999 241.001 386.999 238.92V4.94986C386.999 2.86819 385.312 1.18066 383.23 1.18066H217.886C215.804 1.18066 214.117 2.86819 214.117 4.94986V238.92C214.117 241.001 215.804 242.689 217.886 242.689Z" fill="white"/>
<path d="M387.704 243.394H213.412V0.475586H387.704V243.394ZM214.822 241.984H386.294V1.88564H214.822V241.984Z" fill="#E6E6E6"/>
<path d="M348.535 39.3901C349.206 39.3901 349.75 39.934 349.75 40.6049V43.0344C349.75 43.7053 349.206 44.2492 348.535 44.2492H252.581C251.911 44.2492 251.367 43.7053 251.367 43.0344V40.6049C251.367 39.934 251.911 39.3901 252.581 39.3901H348.535Z" fill="#E6E6E6"/>
<path d="M348.535 50.9285C349.206 50.9285 349.75 51.4723 349.75 52.1432V54.5727C349.75 55.2436 349.206 55.7875 348.535 55.7875H252.581C251.911 55.7875 251.367 55.2436 251.367 54.5727V52.1432C251.367 51.4723 251.911 50.9285 252.581 50.9285H348.535Z" fill="#E6E6E6"/>
<path d="M348.535 62.4678C349.206 62.4678 349.75 63.0116 349.75 63.6825V66.112C349.75 66.7829 349.206 67.3268 348.535 67.3268H252.581C251.911 67.3268 251.367 66.7829 251.367 66.112V63.6832C251.367 63.0123 251.911 62.4685 252.581 62.4685L348.535 62.4678Z" fill="#F96900"/>
<path d="M525.149 92.7401H557.022C556.976 91.2425 557.294 89.7561 557.95 88.4089C557.968 89.9039 558.297 91.3787 558.915 92.7401H560.362C562.577 92.7378 564.371 90.9432 564.374 88.7288V68.0167C564.373 57.8756 555.702 42.6734 546.28 49.0348C545.976 49.019 541.2 46.9036 540.896 46.9036C532.608 46.9103 529.758 54.39 527.254 62.2917C524.402 60.9773 522.437 66.4635 521.016 76.1199C520.601 78.9378 520.232 82.1108 519.901 85.5736C518.988 88.4791 520.602 91.5751 523.508 92.4888C524.039 92.6561 524.594 92.7418 525.151 92.7428L525.149 92.7401Z" fill="#2F2E41"/>
<path d="M462.603 211.152C461.023 214.898 461.675 218.749 464.059 219.755C466.442 220.761 469.655 218.539 471.235 214.792C471.887 213.303 472.173 211.681 472.07 210.059L478.565 194.103L471.013 191.214L465.408 207.251C464.175 208.309 463.212 209.646 462.601 211.151L462.603 211.152Z" fill="#FFB6B6"/>
<path d="M532.44 85.7295L547.675 88.9163L545.338 95.9263L550.012 149.543L542.223 166.807L494.709 162.912L506.393 139.543C506.393 139.543 501.719 120.071 507.951 116.174C514.182 112.278 524.308 92.8056 524.308 92.8056L532.44 85.7295Z" fill="#E6E6E6"/>
<path d="M546.642 92.0169L560.138 97.4813L555.465 166.026L565.59 225.223L532.876 230.676C532.876 230.676 536.771 99.8182 539.107 97.4813C541.443 95.1444 546.642 92.0134 546.642 92.0134V92.0169Z" fill="#2F2E41"/>
<path d="M520.209 100.566C520.209 100.566 511.427 95.0094 506.682 99.1234C501.938 103.237 465.408 202.685 465.408 202.685L475.261 206.965L497.858 159.587L520.209 100.566Z" fill="#2F2E41"/>
<path d="M495.052 268.122L486.143 336.611L498.605 337.39C498.605 337.39 505.085 319.709 512.478 298.881C514.051 294.464 515.663 289.908 517.26 285.343C518.989 280.39 520.711 275.435 522.346 270.653C526.389 258.861 529.933 248.127 531.958 241.117C532.308 239.887 532.62 238.773 532.877 237.791C538.326 216.853 541.444 162.138 541.444 162.138L496.267 158.243L495.784 158.843L486.143 170.893L486.594 173.44L498.605 240.808L495.054 268.125L495.052 268.122Z" fill="#2F2E41"/>
<path d="M498.603 240.808L495.052 268.124L511.027 296.25L512.475 298.882L534.471 338.856L545.337 332.695C545.337 332.695 531.2 300.206 522.344 270.654C521.362 267.405 520.451 264.188 519.633 261.057C517.226 251.889 521.168 235.158 519.625 230.547C514.415 214.984 497.434 183.85 489.551 169.746L486.591 173.438L498.603 240.808Z" fill="#2F2E41"/>
<path d="M524.505 92.219L508.732 98.2639L467.45 218.996L492.375 222.891L504.059 152.788L524.505 92.219Z" fill="#2F2E41"/>
<path d="M563.948 222.539C564.349 226.585 566.762 229.657 569.336 229.402C571.911 229.146 573.672 225.659 573.27 221.612C573.132 219.993 572.608 218.431 571.742 217.056L569.826 199.936L561.811 201.006L564.551 217.77C563.972 219.289 563.765 220.924 563.948 222.539Z" fill="#FFB6B6"/>
<path d="M554.684 97.4849C554.684 97.4849 564.81 95.148 567.926 100.601C571.042 106.053 572.6 211.986 572.6 211.986L561.885 212.765L556.243 160.579L554.685 97.4869L554.684 97.4849Z" fill="#2F2E41"/>
<path d="M541.762 83.84C550.704 83.84 557.953 76.5909 557.953 67.6486C557.953 58.7064 550.704 51.4573 541.762 51.4573C532.82 51.4573 525.57 58.7064 525.57 67.6486C525.57 76.5909 532.82 83.84 541.762 83.84Z" fill="#FFB6B6"/>
<path d="M548.261 92.7394H556.257C556.664 92.7394 557.009 92.4262 557.028 92.0203L557.03 91.9756C557.074 91.1296 558.261 90.9873 558.536 91.7884C558.647 92.1106 558.773 92.428 558.915 92.7394H559.701V67.7774C559.701 63.4959 556.231 60.0251 551.949 60.0251C548.294 60.0251 545.135 62.5787 544.369 66.153C544.369 66.153 538.935 72.8182 542.138 76.5654C545.34 80.3127 540.681 83.3628 540.681 83.3628C539.647 88.1887 543.326 92.7394 548.261 92.7394Z" fill="#2F2E41"/>
<path d="M283.145 121.816C284.939 120.659 285.317 118.182 284.062 116.455L278.183 108.365C276.81 106.473 274.163 106.053 272.271 107.426C272.104 107.548 271.945 107.682 271.797 107.827C261.841 113.149 256.483 120.922 262.441 130.11C262.441 131.644 262.553 133.177 262.776 134.695C262.872 135.353 263.094 135.998 263.47 136.547C264.586 138.179 266.555 138.778 268.288 138.213L277.904 135.089C279.947 134.425 281.053 132.195 280.298 130.183C279.323 127.584 279.725 124.022 283.145 121.816Z" fill="#F2F2F2"/>
<path d="M305.968 145.681C303.201 145.408 300.839 147.688 300.839 150.468V158.763C300.839 158.978 300.856 159.193 300.889 159.405C301.244 161.717 303.406 163.302 305.718 162.947C319.194 164.608 328.403 158.747 328.957 145.89C329.046 145.709 329.121 145.523 329.183 145.332C329.901 143.11 328.682 140.727 326.46 140.008L318.409 137.392C315.632 136.49 312.745 138.293 312.259 141.173C311.82 143.774 310.103 146.089 305.968 145.681Z" fill="#E6E6E6"/>
<path d="M256.191 153.792C258.986 170.379 273.54 176.672 288.719 177.666C289.016 177.712 289.316 177.735 289.617 177.735C292.891 177.737 295.546 175.084 295.548 171.81V157.94C295.548 154.06 292.368 151.038 288.488 150.999C284.738 150.962 282.293 149.187 281.289 145.928C280.142 142.206 276.052 140.243 272.348 141.447L259.687 145.561C258.047 146.094 256.719 147.313 256.05 148.902C255.385 150.475 255.436 152.26 256.191 153.792Z" fill="#3F3D56"/>
<path d="M334.191 96.4378C331.854 94.1491 328.105 94.1879 325.816 96.5245C325.612 96.7324 325.424 96.9551 325.253 97.1908L314.004 112.675C312.565 114.655 313.387 117.414 315.636 118.38C320.902 120.645 320.349 125.728 318.634 128.839C317.794 130.363 318.487 132.271 320.143 132.809L339.1 138.969C342.219 139.976 345.563 138.264 346.57 135.145C346.672 134.831 346.747 134.509 346.795 134.183C347.12 132.012 347.284 129.821 347.284 127.626C350.491 115.668 346.053 104.395 334.191 96.4378Z" fill="#F96900"/>
<path d="M301.635 114.392C303.736 115.575 306.386 115.003 307.803 113.053L311.572 107.866C312.304 106.86 312.558 105.584 312.267 104.375C311.986 103.188 311.199 102.183 310.113 101.627C301.244 93.6141 290.748 93.1223 281.847 101.586C280.728 102.151 279.913 103.178 279.619 104.397C279.328 105.598 279.58 106.865 280.307 107.864L284.712 113.926C286.224 116.008 289.155 116.553 291.239 115.044C294.268 112.851 298.668 112.722 301.635 114.392Z" fill="#E6E6E6"/>
<path d="M251.982 218.886C252.321 217.454 253.91 216.983 255.209 217.037C256.03 217.093 256.844 217.221 257.642 217.422C258.477 217.609 259.304 217.83 260.127 218.064C261.635 218.494 263.128 219.015 264.661 219.351C265.948 219.703 267.302 219.723 268.598 219.409C269.845 219.067 270.827 218.104 271.193 216.864C271.565 215.679 271.029 214.398 269.924 213.832C268.901 213.268 267.614 213.641 267.05 214.664C267.042 214.679 267.034 214.694 267.026 214.709C266.552 215.971 266.924 217.395 267.955 218.263C268.483 218.759 269.062 219.199 269.681 219.575C270.31 220.003 271.01 220.317 271.748 220.5C273.004 220.833 274.331 220.315 275.029 219.219C275.168 218.957 275.252 218.669 275.275 218.373C275.311 217.971 274.683 217.973 274.646 218.373C274.54 219.527 273.189 220.065 272.178 219.94C271.497 219.827 270.846 219.574 270.266 219.197C269.707 218.871 269.177 218.497 268.682 218.08C267.826 217.338 267.023 216.119 267.598 214.962C268.046 214.218 269.011 213.978 269.755 214.426C269.854 214.486 269.946 214.556 270.03 214.637C270.93 215.373 270.769 216.707 270.176 217.581C269.464 218.494 268.363 219.019 267.206 218.998C265.985 219 264.772 218.81 263.61 218.434C262.161 218.023 260.727 217.562 259.272 217.175C258.446 216.955 257.613 216.757 256.772 216.602C255.977 216.427 255.16 216.37 254.348 216.434C252.977 216.499 251.791 217.41 251.374 218.717C251.283 219.113 251.889 219.281 251.982 218.886Z" fill="#3F3D56"/>
<path d="M276.882 202.494C277.072 202.494 277.226 203.038 277.226 203.709V206.138C277.226 206.809 277.072 207.353 276.882 207.353H249.761C249.572 207.353 249.418 206.81 249.418 206.138V203.709C249.418 203.038 249.572 202.494 249.761 202.494H276.882Z" fill="#E6E6E6"/>
<path d="M349.407 202.494C349.596 202.494 349.75 203.038 349.75 203.709V206.138C349.75 206.809 349.596 207.353 349.407 207.353H322.286C322.096 207.353 321.943 206.81 321.943 206.138V203.709C321.943 203.038 322.096 202.494 322.286 202.494H349.407Z" fill="#E6E6E6"/>
<path d="M337.331 216.178L331.947 217.958L329.256 218.848C328.429 219.201 327.534 219.365 326.636 219.329C325.972 219.285 325.39 218.872 325.128 218.261C325.014 217.648 325.277 217.027 325.797 216.683C327.081 215.705 328.706 216.7 329.617 217.712C330.73 218.95 331.36 220.548 332.404 221.844C333.334 223.007 334.512 223.947 335.853 224.594C338.533 225.923 341.729 225.65 344.144 223.885C346.982 221.696 347.272 217.902 347.287 214.591C347.276 214.274 347.009 214.025 346.691 214.036C346.389 214.047 346.146 214.289 346.135 214.591C346.122 217.591 345.951 221.269 343.216 223.146C340.595 224.945 337.153 224.467 334.739 222.551C333.496 221.444 332.461 220.123 331.685 218.65C330.824 217.24 329.754 215.878 328.133 215.331C326.699 214.81 325.097 215.37 324.299 216.671C323.612 217.827 323.993 219.322 325.15 220.009C325.239 220.062 325.332 220.109 325.427 220.151C327.308 221.047 329.459 219.997 331.269 219.398L337.639 217.293C338.339 217.062 338.04 215.949 337.333 216.183L337.331 216.178Z" fill="#F96900"/>
<path d="M61.9574 368.072L69.1353 368.008L72.3082 340.292L61.7142 340.385L61.9574 368.072Z" fill="#FFB6B6"/>
<path d="M86.5485 367.694C86.7753 368.069 86.9038 369.282 86.9076 369.72C86.9194 371.066 85.8382 372.166 84.4927 372.178L62.2634 372.372C61.3456 372.38 60.5949 371.642 60.5869 370.724L60.5789 369.799C60.5789 369.799 59.4549 367.027 61.689 363.579C61.689 363.579 64.5263 366.239 68.6942 361.997L69.9145 359.74L78.947 366.226L83.9272 366.795C85.0167 366.919 85.9804 366.756 86.5485 367.694Z" fill="#2F2E41"/>
<path d="M89.2651 344.142L96.0853 346.381L107.968 321.141L97.9021 317.836L89.2651 344.142Z" fill="#FFB6B6"/>
<path d="M112.682 351.66C112.777 352.088 112.51 353.279 112.373 353.695C111.953 354.973 110.577 355.669 109.298 355.249L88.1779 348.314C87.3058 348.027 86.831 347.088 87.1173 346.216L87.4061 345.337C87.4061 345.337 87.2291 342.351 90.4499 339.8C90.4499 339.8 92.2858 343.228 97.5926 340.545L99.4715 338.798L105.951 347.835L110.487 349.969C111.479 350.436 112.444 350.59 112.682 351.66Z" fill="#2F2E41"/>
<path d="M98.8951 183.434L113.236 229.417L130.048 270.743L104.565 330.208L90.3857 324.683L103.076 273.217L81.3828 234.788L71.131 350.147L58.6595 348.654L42.444 210.469L44.9871 180.42L98.8951 183.434Z" fill="#2F2E41"/>
<path d="M84.2223 78.7367L68.7273 74.9966L64.4527 85.1489C64.4527 85.1489 43.5142 88.6861 42.444 104.716C42.444 104.716 38.2709 125.757 40.9422 131.635C43.6136 137.513 50.1992 158.297 50.1992 158.297C50.1992 158.297 39.7719 184.193 42.444 185.793C45.116 187.394 102.371 193.229 102.371 190.024C102.371 186.818 103.025 148.73 103.025 148.73L100.783 91.0239L86.3599 85.6833L84.2223 78.7367Z" fill="#E6E6E6"/>
<path d="M81.5998 76.155C90.2235 76.155 97.2143 69.1642 97.2143 60.5405C97.2143 51.9169 90.2235 44.926 81.5998 44.926C72.9762 44.926 65.9854 51.9169 65.9854 60.5405C65.9854 69.1642 72.9762 76.155 81.5998 76.155Z" fill="#FFB6B6"/>
<path d="M71.2605 62.8616C72.5067 63.5433 71.3257 66.8005 72.1045 67.0818C73.0048 67.4069 76.2855 63.6699 76.3246 59.4855C76.3365 58.2191 76.0449 57.6111 76.3246 56.1094C76.6906 54.1452 77.8151 51.8282 78.8567 51.8893C79.4742 51.9255 80.0775 52.7983 80.1228 53.5773C80.1862 54.6692 79.1258 55.0993 79.2787 55.6874C79.5701 56.8076 84.024 57.5795 85.6089 55.6874C86.8515 54.2041 85.8973 51.6008 86.453 51.4673C86.8626 51.3689 87.3028 52.8022 88.985 54.4214C89.6188 55.0314 90.5614 55.9387 91.0951 55.6874C91.8663 55.3243 91.305 52.7673 91.5171 52.7333C91.6927 52.7052 91.8036 54.5025 92.7832 56.1094C94.0417 58.1739 96.6369 59.7645 97.8473 59.0635C98.5889 58.634 98.6471 57.4391 98.6913 56.5315C98.7845 54.6194 101.562 50.2203 100.842 48.1752C99.3775 44.0126 96.8715 46.948 95.7372 45.5591C94.2017 43.6788 92.8248 44.6905 90.2511 42.605C87.7368 40.5677 87.7142 38.5191 86.0309 38.3849C84.5151 38.264 83.9766 39.8811 82.2328 39.6509C80.7557 39.4559 80.4338 38.2019 79.2787 38.3849C78.2212 38.5524 78.1519 39.6572 76.7467 40.0729C75.8495 40.3383 75.6523 39.9547 74.6366 40.0729C72.5232 40.3189 71.1043 42.2443 70.8385 42.605C69.8138 43.9954 70.2118 44.5815 69.1504 45.9811C68.2351 47.1881 66.2058 46.6764 65.4431 47.2793C62.9508 49.2494 61.8809 52.8814 61.8607 57.0207C61.8466 59.9158 62.2246 61.3783 63.0682 65.0323C63.7087 67.8068 66.6725 71.3915 68.3064 72.9899C68.7449 73.419 69.9744 74.6218 70.8385 74.256C71.6572 73.9093 71.6815 72.3516 71.6825 72.1459C71.6859 71.4385 71.4972 70.5633 69.9944 68.3478C68.4159 66.0205 67.789 65.7551 67.8844 64.9717C68.053 63.5869 70.2671 62.3183 71.2605 62.8616Z" fill="#2F2E41"/>
<path d="M27.1046 218.608C26.5609 223.148 28.4623 227.109 31.3517 227.455C34.241 227.801 37.0241 224.401 37.5679 219.861C37.8059 217.873 37.5753 215.997 36.9985 214.486L39.0612 195.218L29.9987 194.443L28.9271 213.519C28.0099 214.851 27.3427 216.62 27.1046 218.608Z" fill="#FFB6B6"/>
<path d="M53.1995 90.6494C53.1995 90.6494 48.5042 90.7146 45.3933 96.7852C43.7402 100.011 32.9947 157.83 32.9947 157.83L29.976 176.116L31.5274 179.14C29.0611 182.912 28.3822 187.58 29.6715 191.898L26.722 209.764L40.5911 209.839L51.4145 163.036L60.5151 135.892L53.1995 90.6494Z" fill="#E6E6E6"/>
<path d="M124.056 217.903C124.599 222.443 122.698 226.404 119.809 226.75C116.919 227.096 114.136 223.696 113.592 219.156C113.354 217.168 113.585 215.292 114.162 213.781L112.099 194.513L121.162 193.738L122.233 212.814C123.15 214.146 123.818 215.915 124.056 217.903Z" fill="#FFB6B6"/>
<path d="M97.9608 89.9443C97.9608 89.9443 102.656 90.0095 105.767 96.0801C107.42 99.3059 118.166 157.124 118.166 157.124L121.184 175.411L119.633 178.435C122.099 182.207 122.778 186.875 121.489 191.193L124.438 209.059L110.569 209.134L99.7458 162.331L90.6451 135.187L97.9608 89.9443Z" fill="#E6E6E6"/>
<path d="M522.3 65.2441C522.875 66.187 525.931 62.7374 530.624 62.357C531.819 62.2578 534.512 66.8321 537.601 66.8983C539.649 66.9396 540.909 66.923 543.431 66.8983C546.411 66.8651 547.227 66.799 547.803 66.0712C548.917 64.6569 547.999 62.1426 548.531 61.9358C548.976 61.7621 550.127 63.317 550.717 65.2441C551.956 69.2885 547.511 74.9209 547.074 80.1315C546.608 85.7473 551.198 74.987 550.717 80.1315C550.178 85.921 548.247 85.4827 548.269 87.5752C548.276 87.8895 548.356 88.1624 548.531 88.4023C548.684 88.6173 548.837 88.7 551.446 89.2293C554.564 89.8661 556.131 90.1804 556.546 90.0564C557.618 89.7421 558.703 87.997 559.461 86.7481C560.714 84.7052 559.825 86.7646 559.461 84.2669C559.111 81.8518 558.018 81.5375 558.004 79.3044C557.989 76.4923 559.716 75.6405 560.918 72.6878C563.141 67.2291 560.969 60.9102 560.19 58.6275C559.815 57.5328 559.136 56.1473 557.946 53.8581C556.99 52.0203 555.722 50.4015 554.175 49.1885C551.857 47.3705 549.164 46.1248 546.253 45.6312C544.658 45.3608 543.032 45.5028 541.465 45.9304L537.404 47.0379C535.697 47.5035 534.087 48.3472 532.669 49.5207C531.346 49.5257 530.199 50.4959 529.746 51.906C529.699 52.0536 529.655 52.1396 529.62 52.1269C522.3 49.5296 522.305 57.2224 522.385 62.028C522.393 62.5199 522.377 62.9551 522.321 63.3087V63.3336C522.176 64.2847 522.139 64.9794 522.3 65.2441Z" fill="#2F2E41"/>
<path d="M427.143 107.729H350.079V109.14H427.143V107.729Z" fill="#3F3D56"/>
<path d="M442.654 117.579C437.211 117.579 432.783 113.151 432.783 107.709C432.783 102.266 437.211 97.8384 442.654 97.8384C448.096 97.8384 452.524 102.266 452.524 107.709C452.524 113.151 448.096 117.579 442.654 117.579ZM442.654 99.2484C437.989 99.2484 434.193 103.044 434.193 107.709C434.193 112.374 437.989 116.169 442.654 116.169C447.319 116.169 451.114 112.374 451.114 107.709C451.114 103.044 447.319 99.2484 442.654 99.2484Z" fill="#3F3D56"/>
<path d="M442.654 112.644C445.379 112.644 447.589 110.434 447.589 107.709C447.589 104.983 445.379 102.774 442.654 102.774C439.928 102.774 437.719 104.983 437.719 107.709C437.719 110.434 439.928 112.644 442.654 112.644Z" fill="#F96900"/>
<path d="M251.104 159.901H174.039V161.311H251.104V159.901Z" fill="#3F3D56"/>
<path d="M148.658 159.881C148.658 154.438 153.086 150.01 158.529 150.01C163.971 150.01 168.399 154.438 168.399 159.881C168.399 165.323 163.971 169.751 158.529 169.751C153.086 169.751 148.658 165.323 148.658 159.881ZM150.068 159.881C150.068 164.546 153.864 168.341 158.529 168.341C163.194 168.341 166.989 164.546 166.989 159.881C166.989 155.216 163.194 151.42 158.529 151.42C153.864 151.42 150.068 155.216 150.068 159.881Z" fill="#3F3D56"/>
<path d="M158.529 164.816C161.254 164.816 163.464 162.606 163.464 159.881C163.464 157.155 161.254 154.946 158.529 154.946C155.803 154.946 153.594 157.155 153.594 159.881C153.594 162.606 155.803 164.816 158.529 164.816Z" fill="#F96900"/>
</g>
<defs>
<clipPath id="clip0_145_668">
<rect width="600" height="372.049" fill="white" transform="translate(0 0.475586)"/>
</clipPath>
</defs>
</svg>
